<svg width="25" height="25" viewBox="0 0 85 85" fill="none" xmlns="http://www.w3.org/2000/svg">
<path d="M46.0416 24.7916H38.9583V38.9583H24.7916V46.0416H38.9583V60.2083H46.0416V46.0416H60.2083V38.9583H46.0416V24.7916ZM42.4999 7.08331C22.9499 7.08331 7.08325 22.95 7.08325 42.5C7.08325 62.05 22.9499 77.9166 42.4999 77.9166C62.0499 77.9166 77.9166 62.05 77.9166 42.5C77.9166 22.95 62.0499 7.08331 42.4999 7.08331ZM42.4999 70.8333C26.8812 70.8333 14.1666 58.1187 14.1666 42.5C14.1666 26.8812 26.8812 14.1666 42.4999 14.1666C58.1187 14.1666 70.8333 26.8812 70.8333 42.5C70.8333 58.1187 58.1187 70.8333 42.4999 70.8333Z" fill="#A6C2D1"/>
</svg>
