<svg width="33" height="30" viewBox="0 0 33 30" fill="none" xmlns="http://www.w3.org/2000/svg">
<path d="M8.66659 21.6667C9.58325 21.6667 10.3333 22.4167 10.3333 23.3333C10.3333 25.1667 8.83325 26.6667 6.99992 26.6667C6.71659 26.6667 6.44992 26.6333 6.16659 26.5833C6.68325 25.6667 6.99992 24.5667 6.99992 23.3333C6.99992 22.4167 7.74992 21.6667 8.66659 21.6667ZM28.1166 0C27.6833 0 27.2666 0.166667 26.9333 0.483333L11.9999 15.4167L16.5833 20L31.5166 5.06667C32.1666 4.41667 32.1666 3.36667 31.5166 2.71667L29.2833 0.483333C28.9499 0.15 28.5333 0 28.1166 0ZM8.66659 18.3333C5.89992 18.3333 3.66659 20.5667 3.66659 23.3333C3.66659 25.5167 1.73325 26.6667 0.333252 26.6667C1.86659 28.7 4.48325 30 6.99992 30C10.6833 30 13.6666 27.0167 13.6666 23.3333C13.6666 20.5667 11.4333 18.3333 8.66659 18.3333Z" fill="black"/>
</svg>
