<svg width="51" height="51" viewBox="0 0 51 51" fill="none" xmlns="http://www.w3.org/2000/svg">
<path d="M50.4581 26.0738C50.4581 24.395 50.3094 22.8012 50.0544 21.25H26.0419V30.8338H39.7906C39.1744 33.9788 37.3681 36.635 34.6906 38.4412V44.8162H42.8931C47.6956 40.375 50.4581 33.83 50.4581 26.0738Z" fill="#4285F4"/>
<path d="M26.0419 51C32.9269 51 38.6856 48.705 42.8931 44.8163L34.6906 38.4413C32.3956 39.9713 29.4844 40.9063 26.0419 40.9063C19.3906 40.9063 13.7594 36.4225 11.7406 30.3663H3.28311V36.9325C7.46936 45.2625 16.0756 51 26.0419 51Z" fill="#34A853"/>
<path d="M11.7406 30.3663C11.2094 28.8363 10.9331 27.2 10.9331 25.5C10.9331 23.8 11.2306 22.1638 11.7406 20.6338V14.0675H3.28312C1.54062 17.51 0.54187 21.3775 0.54187 25.5C0.54187 29.6225 1.54062 33.49 3.28312 36.9325L11.7406 30.3663Z" fill="#FBBC05"/>
<path d="M26.0419 10.0938C29.8031 10.0938 33.1606 11.39 35.8169 13.9188L43.0844 6.65125C38.6856 2.52875 32.9269 0 26.0419 0C16.0756 0 7.46936 5.73751 3.28311 14.0675L11.7406 20.6338C13.7594 14.5775 19.3906 10.0938 26.0419 10.0938Z" fill="#EA4335"/>
</svg>
