<svg width="44" height="44" fill="none" xmlns="http://www.w3.org/2000/svg"><path d="M22 39a17 17 0 1 0 0-34 17 17 0 0 0 0 34z" fill="url(#paint0_linear)"/><path d="M22 39.5a17.5 17.5 0 1 0 0-35 17.5 17.5 0 0 0 0 35z" stroke="#000" stroke-opacity=".07"/><path fill-rule="evenodd" clip-rule="evenodd" d="M23.89 23.59v11.17c0 .2-.89.36-1.89.38-.96-.02-1.89-.18-1.89-.38V23.6l-9.29-9c-.15-.14.33-.84 1.06-1.56.73-.72 1.45-1.2 1.59-1.05l8.52 8.23 8.52-8.23c.15-.14.85.33 1.58 1.05.74.72 1.23 1.42 1.09 1.57l-9.3 8.99z" fill="#F33"/><defs><linearGradient id="paint0_linear" x1="22" y1="11" x2="22" y2="39" gradientUnits="userSpaceOnUse"><stop stop-color="#fff"/><stop offset="1" stop-color="#F5F5F5"/></linearGradient></defs></svg>